<svg width="176" height="127" viewBox="0 0 176 127" fill="none" xmlns="http://www.w3.org/2000/svg">
<circle cx="78.1803" cy="10.5751" r="10.5751" fill="#570039"/>
<circle cx="124.635" cy="13.5966" r="10.5751" fill="#570039"/>
<path fill-rule="evenodd" clip-rule="evenodd" d="M120.292 21.1502C121.763 21.1502 123.217 21.22 124.652 21.3564L132.621 66.1123C142.258 66.5361 149.94 74.4825 149.94 84.2232C149.94 86.538 149.506 88.7514 148.715 90.7867C146.72 90.4444 144.668 90.2661 142.575 90.2661C134.094 90.2661 126.296 93.1936 120.137 98.0933C120.118 98.0775 120.099 98.0616 120.081 98.0456C115.732 101.52 112.142 105.904 109.597 110.908C89.6226 106.097 74.7812 88.1124 74.7812 66.6609C74.7812 41.5261 95.157 21.1502 120.292 21.1502Z" fill="#570039"/>
<path fill-rule="evenodd" clip-rule="evenodd" d="M134.455 30.5922C134.455 28.9329 134.277 27.3153 133.938 25.7574C133.885 25.5116 133.827 25.2673 133.766 25.0245C127.82 11.8293 114.554 2.64374 99.1417 2.64374C82.7304 2.64374 68.7518 13.0589 63.455 27.64C63.539 31.9851 64.8459 36.0305 67.0459 39.4466C67.0583 39.4971 67.0709 39.5477 67.0836 39.5982L67.1358 39.5851C67.1057 39.539 67.0757 39.4929 67.0459 39.4466L67.0458 39.4462C71.0781 45.7075 78.1106 49.854 86.1116 49.854C89.8626 49.854 93.4007 48.9427 96.5167 47.3293C100.546 51.0089 105.908 53.2532 111.794 53.2532C118.894 53.2532 125.231 49.9881 129.386 44.8775L129.386 44.878L129.32 44.9588L129.34 44.9816L129.386 44.878C131.361 42.4487 132.843 39.6025 133.679 36.4916C134.185 34.6107 134.455 32.6329 134.455 30.5922Z" fill="#570039"/>
<path d="M58.2424 47.3407C55.4378 44.7664 57.4754 40.0998 61.2699 40.407L81.7248 42.0625C84.4662 42.2843 86.171 45.1426 85.0635 47.6601L79.6986 59.8558C78.5949 62.3649 75.3517 63.0456 73.3324 61.192L58.2424 47.3407Z" fill="#570039"/>
<path d="M137.242 44.3551C140.964 44.4016 142.61 49.0612 139.743 51.4355L132.554 57.3892C130.412 59.1633 127.158 58.2636 126.231 55.6409L124.087 49.5707C123.16 46.9481 125.127 44.2038 127.908 44.2386L137.242 44.3551Z" fill="#570039"/>
<path fill-rule="evenodd" clip-rule="evenodd" d="M120.137 98.0933L120.081 98.0456C116.373 101.008 113.217 104.631 110.79 108.736C103.069 103.922 95.5235 95.5279 90.0545 84.7713C83.7342 72.3401 81.5967 59.5271 83.4346 49.8106C88.1751 50.8133 93.3479 51.3648 98.764 51.3648C108.408 51.3648 117.281 49.6163 124.314 46.6852C126.526 49.0938 128.638 51.7902 130.596 54.7389L132.621 66.1122C134.169 66.1803 135.666 66.4422 137.088 66.8744C140.51 75.027 142.156 83.1492 142.084 90.2693C133.792 90.3801 126.177 93.2884 120.137 98.0933Z" fill="#ED6892"/>
<path fill-rule="evenodd" clip-rule="evenodd" d="M41.6288 54.1888C41.6288 54.1888 35.9785 51.0609 28.9747 49.9614C27.5777 49.644 26.1238 49.4764 24.6307 49.4764C23.1296 49.4764 21.668 49.6458 20.2641 49.9666C12.1702 51.6307 7.80086 58.3962 7.80086 58.3962L7.81041 58.414C2.48686 66.052 -0.440981 75.4472 0.0541003 85.4655C1.24232 109.51 21.6973 128.038 45.7417 126.85C69.786 125.662 88.3146 105.207 87.1264 81.1626C87.0987 80.6022 87.0605 80.0448 87.0121 79.4905L80.59 77.6845C77.0887 72.4476 71.1216 68.999 64.3491 68.999C60.9273 68.999 57.7111 69.8793 54.9147 71.4259C54.0083 71.5979 53.1637 71.6918 52.3999 71.6918C43.3118 71.6918 41.6288 54.1888 41.6288 54.1888Z" fill="#570039"/>
<path fill-rule="evenodd" clip-rule="evenodd" d="M94.2732 29.0012C94.5711 27.6555 94.6267 26.2324 94.3989 24.7886C93.4236 18.6075 87.6221 14.3873 81.4409 15.3627C75.2597 16.338 71.0396 22.1395 72.0149 28.3207C72.1009 28.8654 72.2243 29.3949 72.3822 29.9069C74.6141 28.9882 77.1109 28.2814 79.7805 27.8602C85.2481 26.9974 90.3944 27.4974 94.2732 29.0012Z" fill="#ED6892"/>
<path fill-rule="evenodd" clip-rule="evenodd" d="M123.613 34.0475C124.266 32.8339 124.707 31.4798 124.881 30.0286C125.627 23.8156 121.195 18.1743 114.982 17.4285C108.769 16.6827 103.128 21.1148 102.382 27.3278C102.316 27.8753 102.291 28.4183 102.303 28.9539C104.701 28.6782 107.296 28.6785 109.979 29.0006C115.475 29.6603 120.29 31.5437 123.613 34.0475Z" fill="#ED6892"/>
<circle cx="46.8326" cy="46.0773" r="3.39914" fill="#AE003A"/>
<circle cx="163.914" cy="84.9786" r="3.39914" fill="#AE003A"/>
<circle cx="55.1416" cy="29.837" r="4.90987" fill="#AE003A"/>
<circle cx="146.918" cy="103.863" r="4.90987" fill="#AE003A"/>
<circle cx="34.7468" cy="27.5708" r="8.6867" fill="#AE003A"/>
<circle cx="167.313" cy="103.863" r="8.6867" fill="#AE003A"/>
</svg>
